<mxfile host="app.diagrams.net" agent="Mozilla/5.0 (X11; Linux x86_64) AppleWebKit/537.36 (KHTML, like Gecko) Chrome/138.0.0.0 Safari/537.36" version="28.0.3">
  <diagram name="Page-1" id="dQ5J-4q1YYVRMooueLWJ">
    <mxGraphModel dx="5274" dy="5826" grid="1" gridSize="10" guides="1" tooltips="1" connect="1" arrows="1" fold="1" page="1" pageScale="1" pageWidth="1200" pageHeight="1600" math="0" shadow="0">
      <root>
        <mxCell id="0" />
        <mxCell id="1" parent="0" />
        <mxCell id="u0qONEqaTRGDK13lwDMn-9" style="edgeStyle=orthogonalEdgeStyle;rounded=0;orthogonalLoop=1;jettySize=auto;html=1;exitX=0.5;exitY=1;exitDx=0;exitDy=0;entryX=0.5;entryY=0;entryDx=0;entryDy=0;" parent="1" source="u0qONEqaTRGDK13lwDMn-1" target="u0qONEqaTRGDK13lwDMn-6" edge="1">
          <mxGeometry relative="1" as="geometry" />
        </mxCell>
        <mxCell id="u0qONEqaTRGDK13lwDMn-1" value="&lt;font style=&quot;font-size: 20px;&quot;&gt;management_network&lt;/font&gt;" style="rounded=0;whiteSpace=wrap;html=1;" parent="1" vertex="1">
          <mxGeometry x="160" y="-1240" width="270" height="80" as="geometry" />
        </mxCell>
        <mxCell id="u0qONEqaTRGDK13lwDMn-8" style="edgeStyle=orthogonalEdgeStyle;rounded=0;orthogonalLoop=1;jettySize=auto;html=1;exitX=0.5;exitY=1;exitDx=0;exitDy=0;entryX=0.5;entryY=0;entryDx=0;entryDy=0;" parent="1" source="u0qONEqaTRGDK13lwDMn-2" target="u0qONEqaTRGDK13lwDMn-6" edge="1">
          <mxGeometry relative="1" as="geometry" />
        </mxCell>
        <mxCell id="u0qONEqaTRGDK13lwDMn-2" value="&lt;span style=&quot;font-size: 20px;&quot;&gt;guest_network&lt;/span&gt;" style="rounded=0;whiteSpace=wrap;html=1;" parent="1" vertex="1">
          <mxGeometry x="610" y="-1240" width="270" height="80" as="geometry" />
        </mxCell>
        <mxCell id="u0qONEqaTRGDK13lwDMn-7" style="edgeStyle=orthogonalEdgeStyle;rounded=0;orthogonalLoop=1;jettySize=auto;html=1;exitX=0.5;exitY=1;exitDx=0;exitDy=0;entryX=0.5;entryY=0;entryDx=0;entryDy=0;" parent="1" source="u0qONEqaTRGDK13lwDMn-3" target="u0qONEqaTRGDK13lwDMn-6" edge="1">
          <mxGeometry relative="1" as="geometry" />
        </mxCell>
        <mxCell id="u0qONEqaTRGDK13lwDMn-3" value="&lt;font style=&quot;font-size: 20px;&quot;&gt;DMZ_network&lt;/font&gt;" style="rounded=0;whiteSpace=wrap;html=1;" parent="1" vertex="1">
          <mxGeometry x="1110" y="-1240" width="270" height="80" as="geometry" />
        </mxCell>
        <mxCell id="u0qONEqaTRGDK13lwDMn-10" style="edgeStyle=orthogonalEdgeStyle;rounded=0;orthogonalLoop=1;jettySize=auto;html=1;exitX=0.5;exitY=1;exitDx=0;exitDy=0;entryX=0.5;entryY=0;entryDx=0;entryDy=0;" parent="1" source="u0qONEqaTRGDK13lwDMn-4" target="u0qONEqaTRGDK13lwDMn-6" edge="1">
          <mxGeometry relative="1" as="geometry" />
        </mxCell>
        <mxCell id="u0qONEqaTRGDK13lwDMn-4" value="&lt;font style=&quot;font-size: 20px;&quot;&gt;BMS_network&lt;/font&gt;" style="rounded=0;whiteSpace=wrap;html=1;" parent="1" vertex="1">
          <mxGeometry x="1610" y="-1240" width="270" height="80" as="geometry" />
        </mxCell>
        <mxCell id="u0qONEqaTRGDK13lwDMn-11" style="edgeStyle=orthogonalEdgeStyle;rounded=0;orthogonalLoop=1;jettySize=auto;html=1;exitX=0.5;exitY=1;exitDx=0;exitDy=0;entryX=0.5;entryY=0;entryDx=0;entryDy=0;" parent="1" source="u0qONEqaTRGDK13lwDMn-5" target="u0qONEqaTRGDK13lwDMn-6" edge="1">
          <mxGeometry relative="1" as="geometry" />
        </mxCell>
        <mxCell id="u0qONEqaTRGDK13lwDMn-5" value="&lt;font style=&quot;font-size: 20px;&quot;&gt;staff_network&lt;/font&gt;" style="rounded=0;whiteSpace=wrap;html=1;" parent="1" vertex="1">
          <mxGeometry x="2080" y="-1240" width="270" height="80" as="geometry" />
        </mxCell>
        <mxCell id="u0qONEqaTRGDK13lwDMn-28" style="edgeStyle=orthogonalEdgeStyle;rounded=0;orthogonalLoop=1;jettySize=auto;html=1;exitX=0.5;exitY=1;exitDx=0;exitDy=0;entryX=0.5;entryY=0;entryDx=0;entryDy=0;" parent="1" source="u0qONEqaTRGDK13lwDMn-6" target="u0qONEqaTRGDK13lwDMn-12" edge="1">
          <mxGeometry relative="1" as="geometry">
            <Array as="points">
              <mxPoint x="1245" y="-800" />
            </Array>
          </mxGeometry>
        </mxCell>
        <mxCell id="u0qONEqaTRGDK13lwDMn-6" value="&lt;span style=&quot;font-size: 20px;&quot;&gt;Libvirt_Networks&lt;/span&gt;" style="rounded=0;whiteSpace=wrap;html=1;" parent="1" vertex="1">
          <mxGeometry x="1020" y="-880" width="450" height="80" as="geometry" />
        </mxCell>
        <mxCell id="u0qONEqaTRGDK13lwDMn-90" style="edgeStyle=orthogonalEdgeStyle;rounded=0;orthogonalLoop=1;jettySize=auto;html=1;exitX=0;exitY=0;exitDx=0;exitDy=0;entryX=0;entryY=0.5;entryDx=0;entryDy=0;" parent="1" source="u0qONEqaTRGDK13lwDMn-12" target="u0qONEqaTRGDK13lwDMn-87" edge="1">
          <mxGeometry relative="1" as="geometry">
            <Array as="points">
              <mxPoint x="-500" y="-470" />
              <mxPoint x="-500" y="-1200" />
            </Array>
          </mxGeometry>
        </mxCell>
        <mxCell id="u0qONEqaTRGDK13lwDMn-12" value="&lt;span style=&quot;font-size: 20px;&quot;&gt;OPNsense Virtual-Netwoks&lt;/span&gt;" style="rounded=0;whiteSpace=wrap;html=1;" parent="1" vertex="1">
          <mxGeometry x="1020" y="-470" width="450" height="80" as="geometry" />
        </mxCell>
        <mxCell id="u0qONEqaTRGDK13lwDMn-19" style="edgeStyle=orthogonalEdgeStyle;rounded=0;orthogonalLoop=1;jettySize=auto;html=1;exitX=0.5;exitY=0;exitDx=0;exitDy=0;entryX=0.5;entryY=1;entryDx=0;entryDy=0;" parent="1" source="u0qONEqaTRGDK13lwDMn-13" target="u0qONEqaTRGDK13lwDMn-12" edge="1">
          <mxGeometry relative="1" as="geometry" />
        </mxCell>
        <mxCell id="u0qONEqaTRGDK13lwDMn-13" value="&lt;span style=&quot;font-size: 20px;&quot;&gt;LAN_guest&lt;/span&gt;" style="rounded=0;whiteSpace=wrap;html=1;" parent="1" vertex="1">
          <mxGeometry x="610" y="-130" width="270" height="80" as="geometry" />
        </mxCell>
        <mxCell id="u0qONEqaTRGDK13lwDMn-20" style="edgeStyle=orthogonalEdgeStyle;rounded=0;orthogonalLoop=1;jettySize=auto;html=1;exitX=0.5;exitY=0;exitDx=0;exitDy=0;entryX=0.5;entryY=1;entryDx=0;entryDy=0;" parent="1" source="u0qONEqaTRGDK13lwDMn-14" target="u0qONEqaTRGDK13lwDMn-12" edge="1">
          <mxGeometry relative="1" as="geometry" />
        </mxCell>
        <mxCell id="u0qONEqaTRGDK13lwDMn-14" value="&lt;span style=&quot;font-size: 20px;&quot;&gt;LAN_dmz&lt;/span&gt;" style="rounded=0;whiteSpace=wrap;html=1;" parent="1" vertex="1">
          <mxGeometry x="1110" y="-130" width="270" height="80" as="geometry" />
        </mxCell>
        <mxCell id="u0qONEqaTRGDK13lwDMn-21" style="edgeStyle=orthogonalEdgeStyle;rounded=0;orthogonalLoop=1;jettySize=auto;html=1;exitX=0.5;exitY=0;exitDx=0;exitDy=0;entryX=0.5;entryY=1;entryDx=0;entryDy=0;" parent="1" source="u0qONEqaTRGDK13lwDMn-15" target="u0qONEqaTRGDK13lwDMn-12" edge="1">
          <mxGeometry relative="1" as="geometry" />
        </mxCell>
        <mxCell id="u0qONEqaTRGDK13lwDMn-15" value="&lt;font style=&quot;font-size: 20px;&quot;&gt;LAN_bms&lt;/font&gt;" style="rounded=0;whiteSpace=wrap;html=1;" parent="1" vertex="1">
          <mxGeometry x="1610" y="-130" width="270" height="80" as="geometry" />
        </mxCell>
        <mxCell id="u0qONEqaTRGDK13lwDMn-22" style="edgeStyle=orthogonalEdgeStyle;rounded=0;orthogonalLoop=1;jettySize=auto;html=1;exitX=0.5;exitY=0;exitDx=0;exitDy=0;entryX=0.5;entryY=1;entryDx=0;entryDy=0;" parent="1" source="u0qONEqaTRGDK13lwDMn-16" target="u0qONEqaTRGDK13lwDMn-12" edge="1">
          <mxGeometry relative="1" as="geometry" />
        </mxCell>
        <mxCell id="u0qONEqaTRGDK13lwDMn-16" value="&lt;font style=&quot;font-size: 20px;&quot;&gt;LAN_staff&lt;/font&gt;" style="rounded=0;whiteSpace=wrap;html=1;" parent="1" vertex="1">
          <mxGeometry x="2080" y="-130" width="270" height="80" as="geometry" />
        </mxCell>
        <mxCell id="u0qONEqaTRGDK13lwDMn-18" style="edgeStyle=orthogonalEdgeStyle;rounded=0;orthogonalLoop=1;jettySize=auto;html=1;exitX=0.5;exitY=0;exitDx=0;exitDy=0;entryX=0.5;entryY=1;entryDx=0;entryDy=0;" parent="1" source="u0qONEqaTRGDK13lwDMn-17" target="u0qONEqaTRGDK13lwDMn-12" edge="1">
          <mxGeometry relative="1" as="geometry" />
        </mxCell>
        <mxCell id="u0qONEqaTRGDK13lwDMn-17" value="&lt;font style=&quot;font-size: 20px;&quot;&gt;LAN_mngt&lt;/font&gt;" style="rounded=0;whiteSpace=wrap;html=1;" parent="1" vertex="1">
          <mxGeometry x="160" y="-130" width="270" height="80" as="geometry" />
        </mxCell>
        <mxCell id="u0qONEqaTRGDK13lwDMn-80" style="edgeStyle=orthogonalEdgeStyle;rounded=0;orthogonalLoop=1;jettySize=auto;html=1;exitX=0.5;exitY=0;exitDx=0;exitDy=0;entryX=0;entryY=1;entryDx=0;entryDy=0;" parent="1" source="u0qONEqaTRGDK13lwDMn-29" target="u0qONEqaTRGDK13lwDMn-72" edge="1">
          <mxGeometry relative="1" as="geometry">
            <Array as="points">
              <mxPoint x="-35" y="200" />
              <mxPoint x="2460" y="200" />
              <mxPoint x="2460" y="-50" />
            </Array>
          </mxGeometry>
        </mxCell>
        <mxCell id="u0qONEqaTRGDK13lwDMn-29" value="&lt;font style=&quot;font-size: 20px;&quot;&gt;Domain_Controller and DNS&lt;/font&gt;" style="rounded=0;whiteSpace=wrap;html=1;" parent="1" vertex="1">
          <mxGeometry x="-220" y="365" width="370" height="80" as="geometry" />
        </mxCell>
        <mxCell id="u0qONEqaTRGDK13lwDMn-79" style="edgeStyle=orthogonalEdgeStyle;rounded=0;orthogonalLoop=1;jettySize=auto;html=1;exitX=0.5;exitY=0;exitDx=0;exitDy=0;entryX=0;entryY=1;entryDx=0;entryDy=0;" parent="1" source="u0qONEqaTRGDK13lwDMn-30" target="u0qONEqaTRGDK13lwDMn-72" edge="1">
          <mxGeometry relative="1" as="geometry">
            <Array as="points">
              <mxPoint x="-35" y="650" />
              <mxPoint x="2460" y="650" />
              <mxPoint x="2460" y="-50" />
            </Array>
          </mxGeometry>
        </mxCell>
        <mxCell id="u0qONEqaTRGDK13lwDMn-30" value="&lt;font style=&quot;font-size: 20px;&quot;&gt;Centralised_Logging&lt;/font&gt;" style="rounded=0;whiteSpace=wrap;html=1;" parent="1" vertex="1">
          <mxGeometry x="-220" y="890" width="370" height="90" as="geometry" />
        </mxCell>
        <mxCell id="u0qONEqaTRGDK13lwDMn-59" style="edgeStyle=orthogonalEdgeStyle;rounded=0;orthogonalLoop=1;jettySize=auto;html=1;exitX=0.5;exitY=0;exitDx=0;exitDy=0;entryX=0.5;entryY=1;entryDx=0;entryDy=0;" parent="1" source="u0qONEqaTRGDK13lwDMn-31" target="u0qONEqaTRGDK13lwDMn-17" edge="1">
          <mxGeometry relative="1" as="geometry">
            <Array as="points">
              <mxPoint x="-35" y="1360" />
              <mxPoint x="295" y="1360" />
            </Array>
          </mxGeometry>
        </mxCell>
        <mxCell id="u0qONEqaTRGDK13lwDMn-31" value="&lt;font style=&quot;font-size: 20px;&quot;&gt;CRM_System&lt;/font&gt;" style="rounded=0;whiteSpace=wrap;html=1;" parent="1" vertex="1">
          <mxGeometry x="-220" y="1510" width="370" height="90" as="geometry" />
        </mxCell>
        <mxCell id="aS8EJjcCZO3hqGTjzglu-1" style="edgeStyle=orthogonalEdgeStyle;rounded=0;orthogonalLoop=1;jettySize=auto;html=1;exitX=0.5;exitY=0;exitDx=0;exitDy=0;entryX=0;entryY=1;entryDx=0;entryDy=0;" edge="1" parent="1" source="u0qONEqaTRGDK13lwDMn-32" target="u0qONEqaTRGDK13lwDMn-72">
          <mxGeometry relative="1" as="geometry">
            <Array as="points">
              <mxPoint x="-35" y="1800" />
              <mxPoint x="2460" y="1800" />
              <mxPoint x="2460" y="-50" />
            </Array>
          </mxGeometry>
        </mxCell>
        <mxCell id="u0qONEqaTRGDK13lwDMn-32" value="&lt;font style=&quot;font-size: 20px;&quot;&gt;Access_Control_Server&lt;/font&gt;" style="rounded=0;whiteSpace=wrap;html=1;" parent="1" vertex="1">
          <mxGeometry x="-220" y="2020" width="370" height="90" as="geometry" />
        </mxCell>
        <mxCell id="u0qONEqaTRGDK13lwDMn-56" style="edgeStyle=orthogonalEdgeStyle;rounded=0;orthogonalLoop=1;jettySize=auto;html=1;exitX=1;exitY=0;exitDx=0;exitDy=0;entryX=0;entryY=1;entryDx=0;entryDy=0;" parent="1" source="u0qONEqaTRGDK13lwDMn-33" target="u0qONEqaTRGDK13lwDMn-13" edge="1">
          <mxGeometry relative="1" as="geometry">
            <Array as="points">
              <mxPoint x="520" y="2560" />
              <mxPoint x="520" y="-50" />
            </Array>
          </mxGeometry>
        </mxCell>
        <mxCell id="u0qONEqaTRGDK13lwDMn-33" value="&lt;font style=&quot;font-size: 20px;&quot;&gt;GRMS&lt;/font&gt;" style="rounded=0;whiteSpace=wrap;html=1;" parent="1" vertex="1">
          <mxGeometry x="-220" y="2560" width="370" height="90" as="geometry" />
        </mxCell>
        <mxCell id="u0qONEqaTRGDK13lwDMn-49" style="edgeStyle=orthogonalEdgeStyle;rounded=0;orthogonalLoop=1;jettySize=auto;html=1;exitX=0.5;exitY=0;exitDx=0;exitDy=0;entryX=0.5;entryY=1;entryDx=0;entryDy=0;" parent="1" source="u0qONEqaTRGDK13lwDMn-34" target="u0qONEqaTRGDK13lwDMn-17" edge="1">
          <mxGeometry relative="1" as="geometry">
            <Array as="points">
              <mxPoint x="915" y="270" />
              <mxPoint x="295" y="270" />
            </Array>
          </mxGeometry>
        </mxCell>
        <mxCell id="u0qONEqaTRGDK13lwDMn-34" value="&lt;font style=&quot;font-size: 20px;&quot;&gt;Application_server&lt;/font&gt;" style="rounded=0;whiteSpace=wrap;html=1;" parent="1" vertex="1">
          <mxGeometry x="730" y="360" width="370" height="90" as="geometry" />
        </mxCell>
        <mxCell id="u0qONEqaTRGDK13lwDMn-58" style="edgeStyle=orthogonalEdgeStyle;rounded=0;orthogonalLoop=1;jettySize=auto;html=1;exitX=0.5;exitY=0;exitDx=0;exitDy=0;entryX=0.5;entryY=1;entryDx=0;entryDy=0;" parent="1" source="u0qONEqaTRGDK13lwDMn-35" target="u0qONEqaTRGDK13lwDMn-17" edge="1">
          <mxGeometry relative="1" as="geometry">
            <mxPoint x="370" y="150" as="targetPoint" />
            <Array as="points">
              <mxPoint x="915" y="800" />
              <mxPoint x="295" y="800" />
            </Array>
          </mxGeometry>
        </mxCell>
        <mxCell id="u0qONEqaTRGDK13lwDMn-35" value="&lt;font style=&quot;font-size: 20px;&quot;&gt;File_server&lt;/font&gt;" style="rounded=0;whiteSpace=wrap;html=1;" parent="1" vertex="1">
          <mxGeometry x="730" y="890" width="370" height="90" as="geometry" />
        </mxCell>
        <mxCell id="u0qONEqaTRGDK13lwDMn-61" style="edgeStyle=orthogonalEdgeStyle;rounded=0;orthogonalLoop=1;jettySize=auto;html=1;exitX=0.5;exitY=0;exitDx=0;exitDy=0;entryX=0.5;entryY=1;entryDx=0;entryDy=0;" parent="1" source="u0qONEqaTRGDK13lwDMn-36" target="u0qONEqaTRGDK13lwDMn-17" edge="1">
          <mxGeometry relative="1" as="geometry">
            <Array as="points">
              <mxPoint x="915" y="1360" />
              <mxPoint x="295" y="1360" />
            </Array>
          </mxGeometry>
        </mxCell>
        <mxCell id="u0qONEqaTRGDK13lwDMn-36" value="&lt;font style=&quot;font-size: 20px;&quot;&gt;HR_Finance_server&lt;/font&gt;" style="rounded=0;whiteSpace=wrap;html=1;" parent="1" vertex="1">
          <mxGeometry x="730" y="1510" width="370" height="90" as="geometry" />
        </mxCell>
        <mxCell id="u0qONEqaTRGDK13lwDMn-66" style="edgeStyle=orthogonalEdgeStyle;rounded=0;orthogonalLoop=1;jettySize=auto;html=1;exitX=0.5;exitY=0;exitDx=0;exitDy=0;entryX=0.5;entryY=1;entryDx=0;entryDy=0;" parent="1" source="u0qONEqaTRGDK13lwDMn-37" target="u0qONEqaTRGDK13lwDMn-17" edge="1">
          <mxGeometry relative="1" as="geometry">
            <Array as="points">
              <mxPoint x="915" y="1880" />
              <mxPoint x="295" y="1880" />
            </Array>
          </mxGeometry>
        </mxCell>
        <mxCell id="u0qONEqaTRGDK13lwDMn-37" value="&lt;font style=&quot;font-size: 20px;&quot;&gt;Payment_Gateway&lt;/font&gt;" style="rounded=0;whiteSpace=wrap;html=1;" parent="1" vertex="1">
          <mxGeometry x="730" y="2020" width="370" height="90" as="geometry" />
        </mxCell>
        <mxCell id="u0qONEqaTRGDK13lwDMn-67" style="edgeStyle=orthogonalEdgeStyle;rounded=0;orthogonalLoop=1;jettySize=auto;html=1;exitX=0.5;exitY=0;exitDx=0;exitDy=0;entryX=0;entryY=1;entryDx=0;entryDy=0;" parent="1" source="u0qONEqaTRGDK13lwDMn-38" target="u0qONEqaTRGDK13lwDMn-15" edge="1">
          <mxGeometry relative="1" as="geometry">
            <mxPoint x="1610" y="-50" as="targetPoint" />
            <Array as="points">
              <mxPoint x="915" y="2310" />
              <mxPoint x="1530" y="2310" />
              <mxPoint x="1530" y="-50" />
            </Array>
          </mxGeometry>
        </mxCell>
        <mxCell id="u0qONEqaTRGDK13lwDMn-38" value="&lt;span style=&quot;font-size: 20px;&quot;&gt;IoT_Device_Simulation&lt;/span&gt;" style="rounded=0;whiteSpace=wrap;html=1;" parent="1" vertex="1">
          <mxGeometry x="730" y="2560" width="370" height="90" as="geometry" />
        </mxCell>
        <mxCell id="u0qONEqaTRGDK13lwDMn-54" style="edgeStyle=orthogonalEdgeStyle;rounded=0;orthogonalLoop=1;jettySize=auto;html=1;exitX=0.5;exitY=0;exitDx=0;exitDy=0;entryX=0.5;entryY=1;entryDx=0;entryDy=0;" parent="1" source="u0qONEqaTRGDK13lwDMn-39" target="u0qONEqaTRGDK13lwDMn-16" edge="1">
          <mxGeometry relative="1" as="geometry">
            <Array as="points">
              <mxPoint x="1905" y="100" />
              <mxPoint x="2215" y="100" />
            </Array>
          </mxGeometry>
        </mxCell>
        <mxCell id="u0qONEqaTRGDK13lwDMn-39" value="&lt;span style=&quot;font-size: 20px; background-color: transparent; color: light-dark(rgb(0, 0, 0), rgb(255, 255, 255));&quot;&gt;VoIP_System&lt;/span&gt;" style="rounded=0;whiteSpace=wrap;html=1;" parent="1" vertex="1">
          <mxGeometry x="1730" y="360" width="370" height="90" as="geometry" />
        </mxCell>
        <mxCell id="u0qONEqaTRGDK13lwDMn-53" style="edgeStyle=orthogonalEdgeStyle;rounded=0;orthogonalLoop=1;jettySize=auto;html=1;exitX=0;exitY=0;exitDx=0;exitDy=0;entryX=0;entryY=1;entryDx=0;entryDy=0;" parent="1" source="u0qONEqaTRGDK13lwDMn-40" target="u0qONEqaTRGDK13lwDMn-15" edge="1">
          <mxGeometry relative="1" as="geometry">
            <Array as="points">
              <mxPoint x="1530" y="890" />
              <mxPoint x="1530" y="-50" />
            </Array>
          </mxGeometry>
        </mxCell>
        <mxCell id="u0qONEqaTRGDK13lwDMn-40" value="&lt;font style=&quot;font-size: 20px;&quot;&gt;VMS_System&lt;/font&gt;" style="rounded=0;whiteSpace=wrap;html=1;" parent="1" vertex="1">
          <mxGeometry x="1740" y="890" width="370" height="90" as="geometry" />
        </mxCell>
        <mxCell id="u0qONEqaTRGDK13lwDMn-69" style="edgeStyle=orthogonalEdgeStyle;rounded=0;orthogonalLoop=1;jettySize=auto;html=1;exitX=0.5;exitY=0;exitDx=0;exitDy=0;entryX=0.5;entryY=1;entryDx=0;entryDy=0;" parent="1" source="u0qONEqaTRGDK13lwDMn-41" target="u0qONEqaTRGDK13lwDMn-17" edge="1">
          <mxGeometry relative="1" as="geometry">
            <Array as="points">
              <mxPoint x="1925" y="1880" />
              <mxPoint x="295" y="1880" />
            </Array>
          </mxGeometry>
        </mxCell>
        <mxCell id="u0qONEqaTRGDK13lwDMn-41" value="&lt;font style=&quot;font-size: 20px;&quot;&gt;Single_PoP_CDN&lt;/font&gt;" style="rounded=0;whiteSpace=wrap;html=1;" parent="1" vertex="1">
          <mxGeometry x="1740" y="2050" width="370" height="90" as="geometry" />
        </mxCell>
        <mxCell id="u0qONEqaTRGDK13lwDMn-78" style="edgeStyle=orthogonalEdgeStyle;rounded=0;orthogonalLoop=1;jettySize=auto;html=1;exitX=0.5;exitY=0;exitDx=0;exitDy=0;entryX=0;entryY=1;entryDx=0;entryDy=0;" parent="1" source="u0qONEqaTRGDK13lwDMn-42" target="u0qONEqaTRGDK13lwDMn-72" edge="1">
          <mxGeometry relative="1" as="geometry">
            <Array as="points">
              <mxPoint x="1925" y="1370" />
              <mxPoint x="2460" y="1370" />
              <mxPoint x="2460" y="-50" />
            </Array>
          </mxGeometry>
        </mxCell>
        <mxCell id="u0qONEqaTRGDK13lwDMn-42" value="&lt;span style=&quot;font-size: 20px; background-color: transparent; color: light-dark(rgb(0, 0, 0), rgb(255, 255, 255));&quot;&gt;VPN_Concentrator&lt;/span&gt;" style="rounded=0;whiteSpace=wrap;html=1;" parent="1" vertex="1">
          <mxGeometry x="1740" y="1510" width="370" height="90" as="geometry" />
        </mxCell>
        <mxCell id="u0qONEqaTRGDK13lwDMn-57" style="edgeStyle=orthogonalEdgeStyle;rounded=0;orthogonalLoop=1;jettySize=auto;html=1;exitX=0.5;exitY=0;exitDx=0;exitDy=0;entryX=0.75;entryY=1;entryDx=0;entryDy=0;" parent="1" source="u0qONEqaTRGDK13lwDMn-43" target="u0qONEqaTRGDK13lwDMn-14" edge="1">
          <mxGeometry relative="1" as="geometry">
            <Array as="points">
              <mxPoint x="1935" y="2460" />
              <mxPoint x="1312" y="2460" />
            </Array>
          </mxGeometry>
        </mxCell>
        <mxCell id="u0qONEqaTRGDK13lwDMn-43" value="&lt;font style=&quot;font-size: 20px;&quot;&gt;Web_server&lt;/font&gt;" style="rounded=0;whiteSpace=wrap;html=1;" parent="1" vertex="1">
          <mxGeometry x="1750" y="2530" width="370" height="90" as="geometry" />
        </mxCell>
        <mxCell id="u0qONEqaTRGDK13lwDMn-76" style="edgeStyle=orthogonalEdgeStyle;rounded=0;orthogonalLoop=1;jettySize=auto;html=1;exitX=0.5;exitY=0;exitDx=0;exitDy=0;entryX=0.5;entryY=1;entryDx=0;entryDy=0;" parent="1" source="u0qONEqaTRGDK13lwDMn-44" target="u0qONEqaTRGDK13lwDMn-17" edge="1">
          <mxGeometry relative="1" as="geometry">
            <Array as="points">
              <mxPoint x="2890" y="1880" />
              <mxPoint x="295" y="1880" />
            </Array>
          </mxGeometry>
        </mxCell>
        <mxCell id="u0qONEqaTRGDK13lwDMn-44" value="&lt;span style=&quot;font-size: 20px; background-color: transparent; color: light-dark(rgb(0, 0, 0), rgb(255, 255, 255));&quot;&gt;Email_Gateway&lt;/span&gt;" style="rounded=0;whiteSpace=wrap;html=1;" parent="1" vertex="1">
          <mxGeometry x="2705" y="2050" width="370" height="90" as="geometry" />
        </mxCell>
        <mxCell id="u0qONEqaTRGDK13lwDMn-55" style="edgeStyle=orthogonalEdgeStyle;rounded=0;orthogonalLoop=1;jettySize=auto;html=1;exitX=0.5;exitY=0;exitDx=0;exitDy=0;entryX=0;entryY=1;entryDx=0;entryDy=0;" parent="1" source="u0qONEqaTRGDK13lwDMn-45" target="u0qONEqaTRGDK13lwDMn-15" edge="1">
          <mxGeometry relative="1" as="geometry">
            <Array as="points">
              <mxPoint x="2890" y="740" />
              <mxPoint x="1530" y="740" />
              <mxPoint x="1530" y="-50" />
            </Array>
          </mxGeometry>
        </mxCell>
        <mxCell id="u0qONEqaTRGDK13lwDMn-45" value="&lt;font style=&quot;font-size: 20px;&quot;&gt;BMS_Backend_Energy_Management_Units&lt;/font&gt;" style="rounded=0;whiteSpace=wrap;html=1;" parent="1" vertex="1">
          <mxGeometry x="2640" y="890" width="500" height="90" as="geometry" />
        </mxCell>
        <mxCell id="u0qONEqaTRGDK13lwDMn-52" style="edgeStyle=orthogonalEdgeStyle;rounded=0;orthogonalLoop=1;jettySize=auto;html=1;exitX=0.5;exitY=0;exitDx=0;exitDy=0;entryX=0.5;entryY=1;entryDx=0;entryDy=0;" parent="1" source="u0qONEqaTRGDK13lwDMn-46" target="u0qONEqaTRGDK13lwDMn-16" edge="1">
          <mxGeometry relative="1" as="geometry">
            <Array as="points">
              <mxPoint x="2890" y="100" />
              <mxPoint x="2215" y="100" />
            </Array>
          </mxGeometry>
        </mxCell>
        <mxCell id="u0qONEqaTRGDK13lwDMn-46" value="&lt;font style=&quot;font-size: 20px;&quot;&gt;Staff_Admin_POS_Terminal_BMW_Workstation&lt;/font&gt;" style="rounded=0;whiteSpace=wrap;html=1;" parent="1" vertex="1">
          <mxGeometry x="2610" y="360" width="560" height="80" as="geometry" />
        </mxCell>
        <mxCell id="u0qONEqaTRGDK13lwDMn-77" style="edgeStyle=orthogonalEdgeStyle;rounded=0;orthogonalLoop=1;jettySize=auto;html=1;exitX=0.5;exitY=0;exitDx=0;exitDy=0;entryX=0;entryY=1;entryDx=0;entryDy=0;" parent="1" source="u0qONEqaTRGDK13lwDMn-47" target="u0qONEqaTRGDK13lwDMn-72" edge="1">
          <mxGeometry relative="1" as="geometry">
            <Array as="points">
              <mxPoint x="2890" y="1370" />
              <mxPoint x="2460" y="1370" />
              <mxPoint x="2460" y="-50" />
            </Array>
          </mxGeometry>
        </mxCell>
        <mxCell id="u0qONEqaTRGDK13lwDMn-47" value="&lt;font style=&quot;font-size: 20px;&quot;&gt;DHCP_Firewall_server&lt;/font&gt;" style="rounded=0;whiteSpace=wrap;html=1;" parent="1" vertex="1">
          <mxGeometry x="2705" y="1510" width="370" height="90" as="geometry" />
        </mxCell>
        <mxCell id="u0qONEqaTRGDK13lwDMn-71" style="edgeStyle=orthogonalEdgeStyle;rounded=0;orthogonalLoop=1;jettySize=auto;html=1;exitX=0.5;exitY=1;exitDx=0;exitDy=0;entryX=0.5;entryY=0;entryDx=0;entryDy=0;" parent="1" source="u0qONEqaTRGDK13lwDMn-70" target="u0qONEqaTRGDK13lwDMn-6" edge="1">
          <mxGeometry relative="1" as="geometry" />
        </mxCell>
        <mxCell id="u0qONEqaTRGDK13lwDMn-70" value="&lt;span style=&quot;font-size: 20px;&quot;&gt;Core_network&lt;/span&gt;" style="rounded=0;whiteSpace=wrap;html=1;" parent="1" vertex="1">
          <mxGeometry x="2560" y="-1240" width="270" height="80" as="geometry" />
        </mxCell>
        <mxCell id="u0qONEqaTRGDK13lwDMn-75" style="edgeStyle=orthogonalEdgeStyle;rounded=0;orthogonalLoop=1;jettySize=auto;html=1;exitX=0.5;exitY=0;exitDx=0;exitDy=0;entryX=0.5;entryY=1;entryDx=0;entryDy=0;" parent="1" source="u0qONEqaTRGDK13lwDMn-72" target="u0qONEqaTRGDK13lwDMn-12" edge="1">
          <mxGeometry relative="1" as="geometry" />
        </mxCell>
        <mxCell id="u0qONEqaTRGDK13lwDMn-72" value="&lt;span style=&quot;font-size: 20px;&quot;&gt;LAN_core&lt;/span&gt;" style="rounded=0;whiteSpace=wrap;html=1;" parent="1" vertex="1">
          <mxGeometry x="2560" y="-130" width="270" height="80" as="geometry" />
        </mxCell>
        <mxCell id="u0qONEqaTRGDK13lwDMn-81" value="&lt;font style=&quot;font-size: 27px;&quot;&gt;Isolated&lt;/font&gt;" style="text;html=1;align=center;verticalAlign=middle;resizable=0;points=[];autosize=1;strokeColor=none;fillColor=none;" parent="1" vertex="1">
          <mxGeometry x="240" y="-1290" width="120" height="50" as="geometry" />
        </mxCell>
        <mxCell id="u0qONEqaTRGDK13lwDMn-82" value="&lt;font style=&quot;font-size: 27px;&quot;&gt;Isolated&lt;/font&gt;" style="text;html=1;align=center;verticalAlign=middle;resizable=0;points=[];autosize=1;strokeColor=none;fillColor=none;" parent="1" vertex="1">
          <mxGeometry x="2640" y="-1290" width="120" height="50" as="geometry" />
        </mxCell>
        <mxCell id="u0qONEqaTRGDK13lwDMn-83" value="&lt;span style=&quot;font-size: 27px;&quot;&gt;Nat&lt;/span&gt;" style="text;html=1;align=center;verticalAlign=middle;resizable=0;points=[];autosize=1;strokeColor=none;fillColor=none;" parent="1" vertex="1">
          <mxGeometry x="-180" y="-1290" width="70" height="50" as="geometry" />
        </mxCell>
        <mxCell id="u0qONEqaTRGDK13lwDMn-84" value="&lt;font style=&quot;font-size: 27px;&quot;&gt;Isolated&lt;/font&gt;" style="text;html=1;align=center;verticalAlign=middle;resizable=0;points=[];autosize=1;strokeColor=none;fillColor=none;" parent="1" vertex="1">
          <mxGeometry x="1185" y="-1290" width="120" height="50" as="geometry" />
        </mxCell>
        <mxCell id="u0qONEqaTRGDK13lwDMn-85" value="&lt;font style=&quot;font-size: 27px;&quot;&gt;Isolated&lt;/font&gt;" style="text;html=1;align=center;verticalAlign=middle;resizable=0;points=[];autosize=1;strokeColor=none;fillColor=none;" parent="1" vertex="1">
          <mxGeometry x="1680" y="-1290" width="120" height="50" as="geometry" />
        </mxCell>
        <mxCell id="u0qONEqaTRGDK13lwDMn-86" value="&lt;font style=&quot;font-size: 27px;&quot;&gt;Isolated&lt;/font&gt;" style="text;html=1;align=center;verticalAlign=middle;resizable=0;points=[];autosize=1;strokeColor=none;fillColor=none;" parent="1" vertex="1">
          <mxGeometry x="2150" y="-1290" width="120" height="50" as="geometry" />
        </mxCell>
        <mxCell id="u0qONEqaTRGDK13lwDMn-89" style="edgeStyle=orthogonalEdgeStyle;rounded=0;orthogonalLoop=1;jettySize=auto;html=1;exitX=0.5;exitY=1;exitDx=0;exitDy=0;entryX=0.5;entryY=0;entryDx=0;entryDy=0;" parent="1" source="u0qONEqaTRGDK13lwDMn-87" target="u0qONEqaTRGDK13lwDMn-6" edge="1">
          <mxGeometry relative="1" as="geometry" />
        </mxCell>
        <mxCell id="u0qONEqaTRGDK13lwDMn-87" value="&lt;span style=&quot;font-size: 20px;&quot;&gt;public_network&lt;/span&gt;" style="rounded=0;whiteSpace=wrap;html=1;" parent="1" vertex="1">
          <mxGeometry x="-270" y="-1240" width="270" height="80" as="geometry" />
        </mxCell>
        <mxCell id="u0qONEqaTRGDK13lwDMn-88" value="&lt;font style=&quot;font-size: 27px;&quot;&gt;Isolated&lt;/font&gt;" style="text;html=1;align=center;verticalAlign=middle;resizable=0;points=[];autosize=1;strokeColor=none;fillColor=none;" parent="1" vertex="1">
          <mxGeometry x="630" y="-1290" width="120" height="50" as="geometry" />
        </mxCell>
        <mxCell id="u0qONEqaTRGDK13lwDMn-92" style="edgeStyle=orthogonalEdgeStyle;rounded=0;orthogonalLoop=1;jettySize=auto;html=1;exitX=0.5;exitY=0;exitDx=0;exitDy=0;entryX=0;entryY=0;entryDx=0;entryDy=0;" parent="1" source="u0qONEqaTRGDK13lwDMn-91" target="u0qONEqaTRGDK13lwDMn-87" edge="1">
          <mxGeometry relative="1" as="geometry">
            <Array as="points">
              <mxPoint x="-910" y="-1240" />
            </Array>
          </mxGeometry>
        </mxCell>
        <mxCell id="aS8EJjcCZO3hqGTjzglu-4" style="edgeStyle=orthogonalEdgeStyle;rounded=0;orthogonalLoop=1;jettySize=auto;html=1;exitX=0.25;exitY=0;exitDx=0;exitDy=0;entryX=0.5;entryY=0;entryDx=0;entryDy=0;" edge="1" parent="1" source="u0qONEqaTRGDK13lwDMn-91" target="u0qONEqaTRGDK13lwDMn-2">
          <mxGeometry relative="1" as="geometry">
            <mxPoint x="730" y="-1444" as="targetPoint" />
            <Array as="points">
              <mxPoint x="-1025" y="-1444" />
              <mxPoint x="745" y="-1444" />
            </Array>
          </mxGeometry>
        </mxCell>
        <mxCell id="u0qONEqaTRGDK13lwDMn-91" value="&lt;font style=&quot;font-size: 31px;&quot;&gt;RedTeam Kali Machine&lt;/font&gt;" style="rounded=0;whiteSpace=wrap;html=1;" parent="1" vertex="1">
          <mxGeometry x="-1140" y="-890" width="460" height="100" as="geometry" />
        </mxCell>
        <mxCell id="u0qONEqaTRGDK13lwDMn-93" value="&lt;font style=&quot;font-size: 47px;&quot;&gt;TheRedJungle-Network-Architecture&lt;/font&gt;" style="rounded=0;whiteSpace=wrap;html=1;" parent="1" vertex="1">
          <mxGeometry x="640" y="-1850" width="1160" height="120" as="geometry" />
        </mxCell>
        <mxCell id="aS8EJjcCZO3hqGTjzglu-3" style="edgeStyle=orthogonalEdgeStyle;rounded=0;orthogonalLoop=1;jettySize=auto;html=1;exitX=0.5;exitY=0;exitDx=0;exitDy=0;entryX=0;entryY=1;entryDx=0;entryDy=0;" edge="1" parent="1" source="aS8EJjcCZO3hqGTjzglu-2" target="u0qONEqaTRGDK13lwDMn-72">
          <mxGeometry relative="1" as="geometry">
            <Array as="points">
              <mxPoint x="2915" y="2420" />
              <mxPoint x="2460" y="2420" />
              <mxPoint x="2460" y="-50" />
            </Array>
          </mxGeometry>
        </mxCell>
        <mxCell id="aS8EJjcCZO3hqGTjzglu-2" value="&lt;span style=&quot;font-size: 20px;&quot;&gt;Reverse_Proxy_Load_Balancer&lt;/span&gt;" style="rounded=0;whiteSpace=wrap;html=1;" vertex="1" parent="1">
          <mxGeometry x="2730" y="2530" width="370" height="90" as="geometry" />
        </mxCell>
      </root>
    </mxGraphModel>
  </diagram>
</mxfile>
